<svg width="233" height="138" viewBox="0 0 233 138" fill="none" xmlns="http://www.w3.org/2000/svg">
<path d="M95.08 85.95C100.74 85.95 104.97 87.4 107.77 90.29C110.57 93.18 111.97 97.86 111.97 104.33V136.89H103.85V104.7C103.85 96.8 100.46 92.85 93.68 92.85C88.83 92.85 85.36 94.25 83.28 97.05C81.2 99.85 80.15 103.92 80.15 109.27V136.89H72.03V104.7C72.03 96.8 68.61 92.85 61.77 92.85C56.73 92.85 53.25 94.41 51.32 97.52C49.39 100.63 48.43 105.11 48.43 110.96V136.9H40.22V86.89H46.84L48.05 93.7H48.52C50.07 91.09 52.17 89.14 54.82 87.87C57.46 86.6 60.28 85.96 63.26 85.96C71.1 85.96 76.2 88.76 78.56 94.36H79.03C80.71 91.5 83 89.38 85.89 88.02C88.78 86.65 91.85 85.97 95.08 85.97V85.95Z" fill="#2C84FF"/>
<path d="M137.98 86.05C144.08 86.05 148.58 87.39 151.51 90.06C154.43 92.74 155.9 97 155.9 102.84V136.9H149.93L148.34 129.81H147.97C145.79 132.55 143.51 134.57 141.11 135.87C138.71 137.18 135.4 137.83 131.17 137.83C126.63 137.83 122.87 136.63 119.88 134.24C116.89 131.85 115.4 128.1 115.4 123C115.4 117.9 117.36 114.18 121.28 111.48C125.2 108.78 131.23 107.3 139.38 107.05L147.87 106.77V103.78C147.87 99.61 146.97 96.72 145.16 95.1C143.36 93.48 140.81 92.67 137.51 92.67C134.9 92.67 132.41 93.06 130.05 93.84C127.69 94.62 125.48 95.51 123.43 96.5L120.91 90.34C123.09 89.16 125.67 88.15 128.65 87.31C131.63 86.47 134.75 86.05 137.98 86.05ZM140.41 112.74C134.19 112.99 129.88 113.98 127.49 115.73C125.09 117.47 123.9 119.93 123.9 123.1C123.9 125.9 124.75 127.95 126.47 129.26C128.18 130.57 130.37 131.22 133.05 131.22C137.28 131.22 140.79 130.05 143.59 127.72C146.39 125.39 147.79 121.8 147.79 116.94V112.46L140.42 112.74H140.41Z" fill="#2C84FF"/>
<path d="M180.99 131.12C182.23 131.12 183.51 131.01 184.82 130.79C186.13 130.57 187.18 130.34 187.99 130.09V136.34C187.12 136.78 185.87 137.13 184.26 137.41C182.64 137.69 181.09 137.83 179.59 137.83C176.98 137.83 174.57 137.38 172.36 136.48C170.15 135.58 168.36 134.01 166.99 131.77C165.62 129.53 164.94 126.39 164.94 122.35V93.24H157.85V89.32L165.03 86.05L168.3 75.41H173.15V86.89H187.61V93.24H173.15V122.17C173.15 125.22 173.88 127.47 175.34 128.93C176.8 130.39 178.68 131.12 180.99 131.12Z" fill="#2C84FF"/>
<path d="M211.69 85.95C215.98 85.95 219.67 86.88 222.75 88.75C225.83 90.62 228.19 93.25 229.84 96.63C231.49 100.02 232.31 103.99 232.31 108.53V113.48H198.07C198.19 119.14 199.64 123.45 202.41 126.4C205.18 129.36 209.05 130.83 214.03 130.83C217.2 130.83 220.02 130.54 222.47 129.94C224.93 129.35 227.46 128.49 230.08 127.37V134.56C227.53 135.68 225.01 136.5 222.52 137.03C220.03 137.56 217.08 137.82 213.66 137.82C208.93 137.82 204.75 136.86 201.11 134.93C197.47 133 194.64 130.12 192.62 126.3C190.6 122.47 189.59 117.79 189.59 112.26C189.59 106.73 190.51 102.09 192.34 98.17C194.17 94.25 196.76 91.23 200.08 89.12C203.41 87.01 207.28 85.95 211.7 85.95H211.69ZM211.6 92.67C207.68 92.67 204.59 93.93 202.32 96.45C200.05 98.97 198.7 102.47 198.26 106.95H223.73C223.67 102.72 222.67 99.28 220.74 96.64C218.81 94 215.76 92.67 211.6 92.67Z" fill="#2C84FF"/>
<path d="M56.34 64.19C57.58 64.19 58.86 64.08 60.17 63.86C61.48 63.64 62.53 63.41 63.34 63.16V69.41C62.47 69.85 61.22 70.2 59.61 70.48C57.99 70.76 56.44 70.9 54.94 70.9C52.33 70.9 49.92 70.45 47.71 69.55C45.5 68.65 43.71 67.08 42.34 64.84C40.97 62.6 40.29 59.46 40.29 55.42V26.31H33.2V22.39L40.38 19.12L43.65 8.48H48.5V19.96H62.96V26.31H48.5V55.24C48.5 58.29 49.23 60.54 50.69 62C52.15 63.46 54.03 64.19 56.34 64.19Z" fill="url(#paint0_linear_1_3)"/>
<path d="M89.08 20.06C95.18 20.06 99.68 21.4 102.61 24.07C105.53 26.75 107 31.01 107 36.85V70.91H101.03L99.44 63.82H99.07C96.89 66.56 94.61 68.58 92.21 69.88C89.81 71.19 86.5 71.84 82.27 71.84C77.73 71.84 73.97 70.64 70.98 68.25C67.99 65.86 66.5 62.11 66.5 57.01C66.5 51.91 68.46 48.19 72.38 45.49C76.3 42.79 82.33 41.31 90.48 41.06L98.97 40.78V37.79C98.97 33.62 98.07 30.73 96.26 29.11C94.46 27.49 91.91 26.68 88.61 26.68C86 26.68 83.51 27.07 81.15 27.85C78.79 28.63 76.58 29.52 74.53 30.51L72.01 24.35C74.19 23.17 76.77 22.16 79.75 21.32C82.73 20.48 85.85 20.06 89.08 20.06ZM91.51 46.75C85.29 47 80.98 47.99 78.59 49.74C76.19 51.48 75 53.94 75 57.11C75 59.91 75.85 61.96 77.57 63.27C79.28 64.58 81.47 65.23 84.15 65.23C88.38 65.23 91.89 64.06 94.69 61.73C97.49 59.4 98.89 55.81 98.89 50.95V46.47L91.52 46.75H91.51Z" fill="url(#paint1_linear_1_3)"/>
<path d="M146.8 56.17C146.8 61.02 144.99 64.69 141.39 67.18C137.78 69.67 132.93 70.91 126.83 70.91C123.35 70.91 120.35 70.63 117.83 70.07C115.31 69.51 113.09 68.73 111.16 67.74V60.28C113.15 61.28 115.56 62.19 118.39 63.03C121.22 63.87 124.1 64.29 127.02 64.29C131.19 64.29 134.2 63.62 136.07 62.28C137.94 60.94 138.87 59.15 138.87 56.91C138.87 55.67 138.53 54.55 137.84 53.55C137.15 52.56 135.93 51.56 134.15 50.56C132.38 49.57 129.84 48.45 126.55 47.2C123.32 45.96 120.55 44.71 118.25 43.47C115.95 42.23 114.18 40.73 112.93 38.99C111.68 37.25 111.06 35.01 111.06 32.27C111.06 28.04 112.79 24.77 116.24 22.47C119.69 20.17 124.22 19.02 129.82 19.02C132.87 19.02 135.71 19.32 138.36 19.91C141 20.5 143.48 21.33 145.78 22.38L142.98 28.91C140.86 28.04 138.66 27.29 136.36 26.67C134.06 26.05 131.69 25.74 129.27 25.74C125.91 25.74 123.35 26.29 121.57 27.37C119.8 28.46 118.91 29.94 118.91 31.8C118.91 33.17 119.31 34.34 120.12 35.3C120.93 36.27 122.28 37.2 124.18 38.1C126.08 39 128.61 40.08 131.78 41.32C134.95 42.5 137.66 43.72 139.9 44.96C142.14 46.21 143.85 47.71 145.03 49.49C146.21 51.26 146.8 53.49 146.8 56.16V56.17Z" fill="url(#paint2_linear_1_3)"/>
<path d="M157.81 37.04C157.81 38.04 157.76 39.34 157.67 40.96C157.58 42.58 157.5 43.98 157.44 45.16H157.81C158.18 44.66 158.74 43.95 159.49 43.01C160.24 42.07 161 41.13 161.78 40.16C162.56 39.2 163.23 38.4 163.79 37.78L179.75 20.89H189.36L169.11 42.26L190.76 70.91H180.87L163.51 47.58L157.82 52.53V70.91H149.7V0H157.82V37.04H157.81Z" fill="url(#paint3_linear_1_3)"/>
<path d="M12.29 47.74C19.0776 47.74 24.58 42.2376 24.58 35.45C24.58 28.6624 19.0776 23.16 12.29 23.16C5.50242 23.16 0 28.6624 0 35.45C0 42.2376 5.50242 47.74 12.29 47.74Z" fill="#FE8605"/>
<path d="M12.29 86.35C19.0776 86.35 24.58 80.8476 24.58 74.06C24.58 67.2724 19.0776 61.77 12.29 61.77C5.50242 61.77 0 67.2724 0 74.06C0 80.8476 5.50242 86.35 12.29 86.35Z" fill="#2C84FF"/>
<path d="M24.3536 114.978C25.6371 108.313 21.2744 101.869 14.6093 100.586C7.94418 99.3025 1.50055 103.665 0.217047 110.33C-1.06645 116.995 3.29621 123.439 9.96134 124.723C16.6265 126.006 23.0701 121.643 24.3536 114.978Z" fill="#00C962"/>
<defs>
<linearGradient id="paint0_linear_1_3" x1="48" y1="11.64" x2="48" y2="85.14" gradientUnits="userSpaceOnUse">
<stop stop-color="#FE8605"/>
<stop offset="0.530244" stop-color="#E46E00"/>
<stop offset="1" stop-color="#7E2A0C"/>
</linearGradient>
<linearGradient id="paint1_linear_1_3" x1="86.75" y1="20.06" x2="87" y2="93.64" gradientUnits="userSpaceOnUse">
<stop stop-color="#FE8605"/>
<stop offset="1" stop-color="#985003"/>
</linearGradient>
<linearGradient id="paint2_linear_1_3" x1="128.93" y1="19.02" x2="129" y2="88.64" gradientUnits="userSpaceOnUse">
<stop stop-color="#FE8605"/>
<stop offset="1" stop-color="#985003"/>
</linearGradient>
<linearGradient id="paint3_linear_1_3" x1="170.23" y1="0" x2="170" y2="109.14" gradientUnits="userSpaceOnUse">
<stop stop-color="#FE8605"/>
<stop offset="1" stop-color="#985003"/>
</linearGradient>
</defs>
</svg>
